
<svg width="111px" height="154px" viewBox="0 0 111 154" version="1.1" xmlns="http://www.w3.org/2000/svg" xmlns:xlink="http://www.w3.org/1999/xlink">
    <!-- Generator: Sketch 51.2 (57519) - http://www.bohemiancoding.com/sketch -->
    <desc>Created with Sketch.</desc>
    <defs></defs>
    <g id="Page-1" stroke="none" stroke-width="1" fill="none" fill-rule="evenodd" fill-opacity="0.502830616">
        <g id="Desktop-HD-Copy-4" transform="translate(-470.000000, -3766.000000)" fill="#FFC72B">
            <path d="M579,3873.8 C579.800004,3877.13335 580.2,3879.79999 580.2,3881.8 C580.2,3896.06674 577.166697,3905.99997 571.1,3911.6 C565.033303,3917.20003 556.866718,3920 546.6,3920 C539.26663,3920 530.60005,3918.76668 520.6,3916.3 C510.59995,3913.83332 503.60002,3912.6 499.6,3912.6 L499,3912.6 C490.866626,3912.6 483.733364,3914.73331 477.6,3919 L470.2,3901.4 L470,3901.4 C473.200016,3897.26665 479.599952,3890.90004 489.2,3882.3 C498.800048,3873.69996 504.633323,3868.43334 506.7,3866.5 C508.766677,3864.56666 511.666648,3862.03335 515.4,3858.9 C519.133352,3855.76665 522.099989,3853.20001 524.3,3851.2 C526.500011,3849.19999 529.199984,3846.43335 532.4,3842.9 C535.600016,3839.36665 538.133324,3836.06668 540,3833 C545.600028,3823.93329 548.4,3815.6667 548.4,3808.2 C548.4,3800.7333 546.466686,3795.13335 542.6,3791.4 C538.733314,3787.66665 534.333358,3785.73333 529.4,3785.6 C522.866634,3785.86667 517.93335,3787.79998 514.6,3791.4 C511.26665,3795.00002 509.533334,3798.79998 509.4,3802.8 C509.266666,3806.80002 509.53333,3809.79999 510.2,3811.8 L483,3811.8 C481.799994,3800.59994 484.466634,3791.13337 491,3783.4 C500.066712,3772.33328 513.199914,3766.8 530.4,3766.8 C544.800072,3766.8 556.533288,3770.39996 565.6,3777.6 C574.666712,3784.80004 579.2,3795.0666 579.2,3808.4 C579.2,3821.06673 573.666722,3833.6666 562.6,3846.2 C558.866648,3850.33335 556.133342,3853.19999 554.4,3854.8 C541.333268,3866.93339 527.533406,3878.33328 513,3889 C515.533346,3889.4 521.13329,3890.46666 529.8,3892.2 C539.13338,3893.93334 545.066654,3894.8 547.6,3894.8 C553.066694,3894.8 557.233319,3893.00002 560.1,3889.4 C562.966681,3885.79998 565.266658,3880.60003 567,3873.8 L579,3873.8 Z" id="2-copy"></path>
        </g>
    </g>
</svg>