
<svg width="116px" height="153px" viewBox="0 0 116 153" version="1.1" xmlns="http://www.w3.org/2000/svg" xmlns:xlink="http://www.w3.org/1999/xlink">
    <!-- Generator: Sketch 51.2 (57519) - http://www.bohemiancoding.com/sketch -->
    <desc>Created with Sketch.</desc>
    <defs></defs>
    <g id="Page-1" stroke="none" stroke-width="1" fill="none" fill-rule="evenodd" fill-opacity="0.502830616">
        <g id="Desktop-HD-Copy-4" transform="translate(-893.000000, -3766.000000)" fill="#FFC72B">
            <path d="M907.6,3805.6 C907.6,3798.9333 909.066652,3793.00003 912,3787.8 C914.933348,3782.59997 918.866642,3778.53335 923.8,3775.6 C933.666716,3769.7333 943.999946,3766.8 954.8,3766.8 C969.200072,3766.8 981.033287,3770.16663 990.3,3776.9 C999.566713,3783.63337 1004.13333,3793.2666 1004,3805.8 C1003.6,3822.33342 995.266748,3833.99997 979,3840.8 C987.800044,3842.53334 994.933306,3846.39997 1000.4,3852.4 C1005.86669,3858.40003 1008.6,3865.66662 1008.6,3874.2 C1008.6,3889.13341 1002.86672,3900.3333 991.4,3907.8 C979.933276,3915.2667 966.733408,3919 951.8,3919 C926.066538,3919 906.466734,3909.80009 893,3891.4 L912.4,3873.4 C915.466682,3880.20003 920.799962,3886.19997 928.4,3891.4 C936.266706,3896.73336 943.966629,3899.4 951.5,3899.4 C959.033371,3899.4 965.13331,3897.10002 969.8,3892.5 C974.46669,3887.89998 976.8,3882.20003 976.8,3875.4 C976.8,3871.13331 975.666678,3867.40002 973.4,3864.2 C967.666638,3856.46663 956.333418,3852.6 939.4,3852.6 L924.8,3852.6 L926.4,3834.4 C936.133382,3834.4 944.299967,3834.06667 950.9,3833.4 C957.500033,3832.73333 963.199976,3830.33335 968,3826.2 C973.200026,3821.53331 975.8,3815.20004 975.8,3807.2 C975.8,3801.59997 973.833353,3796.63335 969.9,3792.3 C965.966647,3787.96664 960.266704,3785.73333 952.8,3785.6 C946.533302,3785.86667 941.900015,3787.76665 938.9,3791.3 C935.899985,3794.83335 934.4,3798.53331 934.4,3802.4 C934.4,3806.26669 934.799996,3809.39999 935.6,3811.8 L908,3811.8 C907.733332,3809.13332 907.6,3807.06667 907.6,3805.6 Z" id="3-copy"></path>
        </g>
    </g>
</svg>