
<svg width="280px" height="182px" viewBox="0 0 280 182" version="1.1" xmlns="http://www.w3.org/2000/svg" xmlns:xlink="http://www.w3.org/1999/xlink">
    <!-- Generator: Sketch 49.3 (51167) - http://www.bohemiancoding.com/sketch -->
    <desc>Created with Sketch.</desc>
    <defs></defs>
    <g id="Page-1" stroke="none" stroke-width="1" fill="none" fill-rule="evenodd">
        <g id="Desktop-HD" transform="translate(-31.000000, 0.000000)">
            <circle id="Oval" fill="#FFC919" cx="171" cy="42" r="140"></circle>
            <path d="M77.87,59.89 C77.87,62.2300117 77.1600071,64.0499935 75.74,65.35 C74.3199929,66.6500065 72.3900122,67.3 69.95,67.3 C66.7099838,67.3 63.9800111,66.0800122 61.76,63.64 L64.91,59.14 C65.6900039,59.9200039 66.4749961,60.509998 67.265,60.91 C68.0550039,61.310002 68.7299972,61.51 69.29,61.51 C69.7900025,61.51 70.1799986,61.3600015 70.46,61.06 C70.7400014,60.7599985 70.88,60.3200029 70.88,59.74 L70.88,51.46 L63.74,51.46 L63.74,45.97 L77.87,45.97 L77.87,59.89 Z M88.7,50.29 C91.0800119,50.29 92.9349933,50.8249947 94.265,51.895 C95.5950067,52.9650053 96.26,54.4599904 96.26,56.38 L96.26,67 L89.63,67 L89.63,65.23 C88.629995,66.6100069 87.0900104,67.3 85.01,67.3 C83.2899914,67.3 81.9450049,66.8350047 80.975,65.905 C80.0049951,64.9749954 79.52,63.7200079 79.52,62.14 C79.52,60.5199919 80.0599946,59.2900042 81.14,58.45 C82.2200054,57.6099958 83.7999896,57.1700002 85.88,57.13 L89.63,57.13 C89.6099999,56.5499971 89.3850021,56.1050015 88.955,55.795 C88.5249979,55.4849984 87.9000041,55.33 87.08,55.33 C86.4399968,55.33 85.6750045,55.4199991 84.785,55.6 C83.8949956,55.7800009 83.0000045,56.0399983 82.1,56.38 L80.6,51.88 C82.000007,51.3599974 83.394993,50.9650014 84.785,50.695 C86.1750069,50.4249986 87.4799939,50.29 88.7,50.29 Z M87.35,63.01 C87.7900022,63.01 88.2149979,62.9000011 88.625,62.68 C89.0350021,62.4599989 89.3699987,62.150002 89.63,61.75 L89.63,60.25 L87.29,60.25 C86.3299952,60.25 85.85,60.6899956 85.85,61.57 C85.85,62.0300023 85.9799987,62.3849987 86.24,62.635 C86.5000013,62.8850013 86.8699976,63.01 87.35,63.01 Z M110.84,50.29 C111.980006,50.29 112.994996,50.5499974 113.885,51.07 C114.775004,51.5900026 115.469997,52.3199953 115.97,53.26 C116.470002,54.2000047 116.72,55.2899938 116.72,56.53 L116.72,67 L109.97,67 L109.97,58.48 C109.97,57.7999966 109.790002,57.2550021 109.43,56.845 C109.069998,56.4349979 108.600003,56.23 108.02,56.23 C107.359997,56.23 106.835002,56.4699976 106.445,56.95 C106.054998,57.4300024 105.86,58.069996 105.86,58.87 L105.86,67 L99.11,67 L99.11,50.59 L105.86,50.59 L105.86,52.93 C106.420003,52.0699957 107.124996,51.4150023 107.975,50.965 C108.825004,50.5149977 109.779995,50.29 110.84,50.29 Z M119.57,50.59 L126.32,50.59 L126.32,67 L119.57,67 L119.57,50.59 Z M122.87,42.49 C123.870005,42.49 124.689997,42.8099968 125.33,43.45 C125.970003,44.0900032 126.29,44.909995 126.29,45.91 C126.29,46.910005 125.970003,47.7299968 125.33,48.37 C124.689997,49.0100032 123.870005,49.33 122.87,49.33 C121.869995,49.33 121.050003,49.0100032 120.41,48.37 C119.769997,47.7299968 119.45,46.910005 119.45,45.91 C119.45,44.909995 119.769997,44.0900032 120.41,43.45 C121.050003,42.8099968 121.869995,42.49 122.87,42.49 Z M136.37,52.99 C136.950003,52.1299957 137.664996,51.4650024 138.515,50.995 C139.365004,50.5249977 140.319995,50.29 141.38,50.29 L141.38,56.38 C140.939998,56.3199997 140.510002,56.29 140.09,56.29 C138.929994,56.29 138.020003,56.5449974 137.36,57.055 C136.699997,57.5650026 136.37,58.2699955 136.37,59.17 L136.37,67 L129.62,67 L129.62,50.59 L136.37,50.59 L136.37,52.99 Z M151.01,50.29 C153.390012,50.29 155.244993,50.8249947 156.575,51.895 C157.905007,52.9650053 158.57,54.4599904 158.57,56.38 L158.57,67 L151.94,67 L151.94,65.23 C150.939995,66.6100069 149.40001,67.3 147.32,67.3 C145.599991,67.3 144.255005,66.8350047 143.285,65.905 C142.314995,64.9749954 141.83,63.7200079 141.83,62.14 C141.83,60.5199919 142.369995,59.2900042 143.45,58.45 C144.530005,57.6099958 146.10999,57.1700002 148.19,57.13 L151.94,57.13 C151.92,56.5499971 151.695002,56.1050015 151.265,55.795 C150.834998,55.4849984 150.210004,55.33 149.39,55.33 C148.749997,55.33 147.985004,55.4199991 147.095,55.6 C146.204996,55.7800009 145.310005,56.0399983 144.41,56.38 L142.91,51.88 C144.310007,51.3599974 145.704993,50.9650014 147.095,50.695 C148.485007,50.4249986 149.789994,50.29 151.01,50.29 Z M149.66,63.01 C150.100002,63.01 150.524998,62.9000011 150.935,62.68 C151.345002,62.4599989 151.679999,62.150002 151.94,61.75 L151.94,60.25 L149.6,60.25 C148.639995,60.25 148.16,60.6899956 148.16,61.57 C148.16,62.0300023 148.289999,62.3849987 148.55,62.635 C148.810001,62.8850013 149.179998,63.01 149.66,63.01 Z M180.86,55.93 L186.83,55.93 L186.83,64.72 C185.649994,65.520004 184.195009,66.1799974 182.465,66.7 C180.734991,67.2200026 179.120007,67.48 177.62,67.48 C175.439989,67.48 173.485009,67.0050047 171.755,66.055 C170.024991,65.1049953 168.670005,63.7950084 167.69,62.125 C166.709995,60.4549916 166.22,58.5700105 166.22,56.47 C166.22,54.3899896 166.729995,52.5150084 167.75,50.845 C168.770005,49.1749917 170.179991,47.8700047 171.98,46.93 C173.780009,45.9899953 175.809989,45.52 178.07,45.52 C179.710008,45.52 181.354992,45.819997 183.005,46.42 C184.655008,47.020003 186.039994,47.819995 187.16,48.82 L183.23,53.59 C182.529996,52.8899965 181.705005,52.335002 180.755,51.925 C179.804995,51.514998 178.900004,51.31 178.04,51.31 C177.159996,51.31 176.360004,51.5349978 175.64,51.985 C174.919996,52.4350022 174.360002,53.0499961 173.96,53.83 C173.559998,54.6100039 173.36,55.4899951 173.36,56.47 C173.36,57.470005 173.564998,58.3649961 173.975,59.155 C174.385002,59.945004 174.949996,60.5649978 175.67,61.015 C176.390004,61.4650022 177.199995,61.69 178.1,61.69 C178.860004,61.69 179.779995,61.4500024 180.86,60.97 L180.86,55.93 Z M189.56,50.59 L196.31,50.59 L196.31,67 L189.56,67 L189.56,50.59 Z M192.86,42.49 C193.860005,42.49 194.679997,42.8099968 195.32,43.45 C195.960003,44.0900032 196.28,44.909995 196.28,45.91 C196.28,46.910005 195.960003,47.7299968 195.32,48.37 C194.679997,49.0100032 193.860005,49.33 192.86,49.33 C191.859995,49.33 191.040003,49.0100032 190.4,48.37 C189.759997,47.7299968 189.44,46.910005 189.44,45.91 C189.44,44.909995 189.759997,44.0900032 190.4,43.45 C191.040003,42.8099968 191.859995,42.49 192.86,42.49 Z M199.76,44.74 L206.51,44.74 L206.51,67 L199.76,67 L199.76,44.74 Z M217.94,50.29 C220.320012,50.29 222.174993,50.8249947 223.505,51.895 C224.835007,52.9650053 225.5,54.4599904 225.5,56.38 L225.5,67 L218.87,67 L218.87,65.23 C217.869995,66.6100069 216.33001,67.3 214.25,67.3 C212.529991,67.3 211.185005,66.8350047 210.215,65.905 C209.244995,64.9749954 208.76,63.7200079 208.76,62.14 C208.76,60.5199919 209.299995,59.2900042 210.38,58.45 C211.460005,57.6099958 213.03999,57.1700002 215.12,57.13 L218.87,57.13 C218.85,56.5499971 218.625002,56.1050015 218.195,55.795 C217.764998,55.4849984 217.140004,55.33 216.32,55.33 C215.679997,55.33 214.915004,55.4199991 214.025,55.6 C213.134996,55.7800009 212.240004,56.0399983 211.34,56.38 L209.84,51.88 C211.240007,51.3599974 212.634993,50.9650014 214.025,50.695 C215.415007,50.4249986 216.719994,50.29 217.94,50.29 Z M216.59,63.01 C217.030002,63.01 217.454998,62.9000011 217.865,62.68 C218.275002,62.4599989 218.609999,62.150002 218.87,61.75 L218.87,60.25 L216.53,60.25 C215.569995,60.25 215.09,60.6899956 215.09,61.57 C215.09,62.0300023 215.219999,62.3849987 215.48,62.635 C215.740001,62.8850013 216.109998,63.01 216.59,63.01 Z M235.1,52.99 C235.680003,52.1299957 236.394996,51.4650024 237.245,50.995 C238.095004,50.5249977 239.049995,50.29 240.11,50.29 L240.11,56.38 C239.669998,56.3199997 239.240002,56.29 238.82,56.29 C237.659994,56.29 236.750003,56.5449974 236.09,57.055 C235.429997,57.5650026 235.1,58.2699955 235.1,59.17 L235.1,67 L228.35,67 L228.35,50.59 L235.1,50.59 L235.1,52.99 Z M253.76,66.28 C253.219997,66.6000016 252.515004,66.8499991 251.645,67.03 C250.774996,67.2100009 249.890004,67.3 248.99,67.3 C247.149991,67.3 245.675006,66.7950051 244.565,65.785 C243.454994,64.774995 242.9,63.4200085 242.9,61.72 L242.9,55.75 L240.65,55.75 L240.65,51.49 L242.9,51.49 L242.9,46.9 L249.62,46.9 L249.62,51.49 L253.46,51.49 L253.46,55.75 L249.62,55.75 L249.62,60.7 C249.62,61.1400022 249.739999,61.4849988 249.98,61.735 C250.220001,61.9850012 250.539998,62.1000001 250.94,62.08 C251.320002,62.08 251.879996,61.9400014 252.62,61.66 L253.76,66.28 Z M263.42,50.35 C265.220009,50.35 266.779993,50.7199963 268.1,51.46 C269.420007,52.2000037 270.429997,53.2549932 271.13,54.625 C271.830004,55.9950068 272.18,57.5999908 272.18,59.44 C272.18,59.8200019 272.17,60.109999 272.15,60.31 L261.47,60.31 C261.690001,60.9500032 262.034998,61.4349984 262.505,61.765 C262.975002,62.0950017 263.539997,62.26 264.2,62.26 C265.380006,62.26 266.489995,61.7700049 267.53,60.79 L271.04,64.24 C270.159996,65.2200049 269.095006,65.9649974 267.845,66.475 C266.594994,66.9850025 265.180008,67.24 263.6,67.24 C261.759991,67.24 260.165007,66.8950035 258.815,66.205 C257.464993,65.5149966 256.435004,64.5400063 255.725,63.28 C255.014996,62.0199937 254.66,60.5500084 254.66,58.87 C254.66,57.1499914 255.019996,55.6500064 255.74,54.37 C256.460004,53.0899936 257.484993,52.1000035 258.815,51.4 C260.145007,50.6999965 261.679991,50.35 263.42,50.35 Z M265.4,57.19 C265.44,56.5099966 265.275002,55.9500022 264.905,55.51 C264.534998,55.0699978 264.060003,54.85 263.48,54.85 C262.919997,54.85 262.455002,55.0599979 262.085,55.48 C261.714998,55.9000021 261.460001,56.4699964 261.32,57.19 L265.4,57.19 Z" id="Janira-Gilarte" fill="#26293E"></path>
        </g>
    </g>
</svg>