
<svg width="115px" height="154px" viewBox="0 0 115 154" version="1.1" xmlns="http://www.w3.org/2000/svg" xmlns:xlink="http://www.w3.org/1999/xlink">
    <!-- Generator: Sketch 51.2 (57519) - http://www.bohemiancoding.com/sketch -->
    <desc>Created with Sketch.</desc>
    <defs></defs>
    <g id="Page-1" stroke="none" stroke-width="1" fill="none" fill-rule="evenodd" fill-opacity="0.468551857">
        <g id="Desktop-HD-Copy-2" transform="translate(-165.000000, -2616.000000)" fill="#00C7BD">
            <path d="M185,2625.4 C191.266698,2619.39997 198.599958,2616.4 207,2616.4 C212.733362,2616.4 217.166651,2617.89999 220.3,2620.9 C223.433349,2623.90002 225,2627.79998 225,2632.6 C225,2637.40002 223.700013,2642.49997 221.1,2647.9 C218.499987,2653.30003 216.566673,2657.33332 215.3,2660 C214.033327,2662.66668 212.166679,2666.13331 209.7,2670.4 C207.233321,2674.66669 205.400006,2677.79999 204.2,2679.8 C202.733326,2682.60001 199.33336,2688.39996 194,2697.2 L227.4,2697.2 L239,2627.4 C241.800014,2626.33333 245.466644,2625.8 250,2625.8 C254.533356,2625.8 258.166653,2626.66666 260.9,2628.4 C263.633347,2630.13334 265,2633.39998 265,2638.2 C265,2639.93334 264.900001,2641.49999 264.7,2642.9 C264.499999,2644.30001 261.0667,2663.06649 254.4,2699.2 C271.200084,2703.20002 279.6,2713.59992 279.6,2730.4 C279.6,2732.53334 279.466668,2734.73332 279.2,2737 C277.86666,2748.73339 274.166697,2757.16664 268.1,2762.3 C262.033303,2767.43336 254.833375,2770 246.5,2770 C238.166625,2770 231.66669,2767.70002 227,2763.1 C222.33331,2758.49998 220,2752.53337 220,2745.2 C220,2742.66665 220.133332,2740.73334 220.4,2739.4 L223.6,2720.2 L173.6,2720.8 L168.2,2709.2 C166.333324,2704.79998 165.4,2702.2 165.4,2701.4 C165.4,2700.6 165.466666,2700.13333 165.6,2700 C184.533428,2675.33321 194.66666,2655.06675 196,2639.2 L196,2638 C196,2632.1333 192.33337,2627.93335 185,2625.4 Z M263.6,2733.2 C263.6,2724.93329 259.333376,2720.4 250.8,2719.6 C248.533322,2732.1334 247.4,2739.33332 247.4,2741.2 C247.4,2746.80003 249.266648,2749.6 253,2749.6 C255.66668,2749.6 257.933324,2748.53334 259.8,2746.4 C262.333346,2743.06665 263.6,2738.66669 263.6,2733.2 Z" id="4"></path>
        </g>
    </g>
</svg>