
<svg width="116px" height="153px" viewBox="0 0 116 153" version="1.1" xmlns="http://www.w3.org/2000/svg" xmlns:xlink="http://www.w3.org/1999/xlink">
    <!-- Generator: Sketch 51.2 (57519) - http://www.bohemiancoding.com/sketch -->
    <desc>Created with Sketch.</desc>
    <defs></defs>
    <g id="Page-1" stroke="none" stroke-width="1" fill="none" fill-rule="evenodd" fill-opacity="0.468551857">
        <g id="Desktop-HD-Copy-2" transform="translate(-934.000000, -2026.000000)" fill="#00C7BD">
            <path d="M948.6,2065.6 C948.6,2058.9333 950.066652,2053.00003 953,2047.8 C955.933348,2042.59997 959.866642,2038.53335 964.8,2035.6 C974.666716,2029.7333 984.999946,2026.8 995.8,2026.8 C1010.20007,2026.8 1022.03329,2030.16663 1031.3,2036.9 C1040.56671,2043.63337 1045.13333,2053.2666 1045,2065.8 C1044.6,2082.33342 1036.26675,2093.99997 1020,2100.8 C1028.80004,2102.53334 1035.93331,2106.39997 1041.4,2112.4 C1046.86669,2118.40003 1049.6,2125.66662 1049.6,2134.2 C1049.6,2149.13341 1043.86672,2160.3333 1032.4,2167.8 C1020.93328,2175.2667 1007.73341,2179 992.8,2179 C967.066538,2179 947.466734,2169.80009 934,2151.4 L953.4,2133.4 C956.466682,2140.20003 961.799962,2146.19997 969.4,2151.4 C977.266706,2156.73336 984.966629,2159.4 992.5,2159.4 C1000.03337,2159.4 1006.13331,2157.10002 1010.8,2152.5 C1015.46669,2147.89998 1017.8,2142.20003 1017.8,2135.4 C1017.8,2131.13331 1016.66668,2127.40002 1014.4,2124.2 C1008.66664,2116.46663 997.333418,2112.6 980.4,2112.6 L965.8,2112.6 L967.4,2094.4 C977.133382,2094.4 985.299967,2094.06667 991.9,2093.4 C998.500033,2092.73333 1004.19998,2090.33335 1009,2086.2 C1014.20003,2081.53331 1016.8,2075.20004 1016.8,2067.2 C1016.8,2061.59997 1014.83335,2056.63335 1010.9,2052.3 C1006.96665,2047.96664 1001.2667,2045.73333 993.8,2045.6 C987.533302,2045.86667 982.900015,2047.76665 979.9,2051.3 C976.899985,2054.83335 975.4,2058.53331 975.4,2062.4 C975.4,2066.26669 975.799996,2069.39999 976.6,2071.8 L949,2071.8 C948.733332,2069.13332 948.6,2067.06667 948.6,2065.6 Z" id="3"></path>
        </g>
    </g>
</svg>