
<svg width="111px" height="154px" viewBox="0 0 111 154" version="1.1" xmlns="http://www.w3.org/2000/svg" xmlns:xlink="http://www.w3.org/1999/xlink">
    <!-- Generator: Sketch 51.2 (57519) - http://www.bohemiancoding.com/sketch -->
    <desc>Created with Sketch.</desc>
    <defs></defs>
    <g id="Page-1" stroke="none" stroke-width="1" fill="none" fill-rule="evenodd" fill-opacity="0.468551857">
        <g id="Desktop-HD-Copy-2" transform="translate(-540.000000, -2026.000000)" fill="#00C7BD">
            <path d="M649,2133.8 C649.800004,2137.13335 650.2,2139.79999 650.2,2141.8 C650.2,2156.06674 647.166697,2165.99997 641.1,2171.6 C635.033303,2177.20003 626.866718,2180 616.6,2180 C609.26663,2180 600.60005,2178.76668 590.6,2176.3 C580.59995,2173.83332 573.60002,2172.6 569.6,2172.6 L569,2172.6 C560.866626,2172.6 553.733364,2174.73331 547.6,2179 L540.2,2161.4 L540,2161.4 C543.200016,2157.26665 549.599952,2150.90004 559.2,2142.3 C568.800048,2133.69996 574.633323,2128.43334 576.7,2126.5 C578.766677,2124.56666 581.666648,2122.03335 585.4,2118.9 C589.133352,2115.76665 592.099989,2113.20001 594.3,2111.2 C596.500011,2109.19999 599.199984,2106.43335 602.4,2102.9 C605.600016,2099.36665 608.133324,2096.06668 610,2093 C615.600028,2083.93329 618.4,2075.6667 618.4,2068.2 C618.4,2060.7333 616.466686,2055.13335 612.6,2051.4 C608.733314,2047.66665 604.333358,2045.73333 599.4,2045.6 C592.866634,2045.86667 587.93335,2047.79998 584.6,2051.4 C581.26665,2055.00002 579.533334,2058.79998 579.4,2062.8 C579.266666,2066.80002 579.53333,2069.79999 580.2,2071.8 L553,2071.8 C551.799994,2060.59994 554.466634,2051.13337 561,2043.4 C570.066712,2032.33328 583.199914,2026.8 600.4,2026.8 C614.800072,2026.8 626.533288,2030.39996 635.6,2037.6 C644.666712,2044.80004 649.2,2055.0666 649.2,2068.4 C649.2,2081.06673 643.666722,2093.6666 632.6,2106.2 C628.866648,2110.33335 626.133342,2113.19999 624.4,2114.8 C611.333268,2126.93339 597.533406,2138.33328 583,2149 C585.533346,2149.4 591.13329,2150.46666 599.8,2152.2 C609.13338,2153.93334 615.066654,2154.8 617.6,2154.8 C623.066694,2154.8 627.233319,2153.00002 630.1,2149.4 C632.966681,2145.79998 635.266658,2140.60003 637,2133.8 L649,2133.8 Z" id="2"></path>
        </g>
    </g>
</svg>