
<svg width="111px" height="157px" viewBox="0 0 111 157" version="1.1" xmlns="http://www.w3.org/2000/svg" xmlns:xlink="http://www.w3.org/1999/xlink">
    <!-- Generator: Sketch 51.2 (57519) - http://www.bohemiancoding.com/sketch -->
    <desc>Created with Sketch.</desc>
    <defs></defs>
    <g id="Page-1" stroke="none" stroke-width="1" fill="none" fill-rule="evenodd" fill-opacity="0.468551857">
        <g id="Desktop-HD-Copy-2" transform="translate(-550.000000, -2613.000000)" fill="#00C7BD">
            <path d="M629.2,2642.2 L602.2,2640.6 L597.4,2671.8 C600.866684,2671 604.733312,2670.6 609,2670.6 C613.266688,2670.6 618.033307,2671.36666 623.3,2672.9 C628.566693,2674.43334 633.799974,2676.76665 639,2679.9 C644.200026,2683.03335 648.46665,2687.6333 651.8,2693.7 C655.13335,2699.7667 656.8,2706.79996 656.8,2714.8 C656.8,2732.53342 651.366721,2746.16662 640.5,2755.7 C629.633279,2765.23338 614.900093,2770 596.3,2770 C577.699907,2770 562.266728,2763.5334 550,2750.6 L563.4,2729.2 C571.133372,2742.9334 582.133262,2749.8 596.4,2749.8 C604.800042,2749.8 611.699973,2746.7667 617.1,2740.7 C622.500027,2734.6333 625.2,2726.86671 625.2,2717.4 C625.2,2707.93329 622.166697,2700.70003 616.1,2695.7 C610.033303,2690.69997 602.366713,2688.2 593.1,2688.2 C583.833287,2688.2 575.266706,2690.26665 567.4,2694.4 L580,2618 L600.8,2618 C633.333496,2618 653.066632,2616.53335 660,2613.6 C660.133334,2615.86668 660.2,2618.33332 660.2,2621 C660.2,2623.66668 659.833337,2626.56665 659.1,2629.7 C658.366663,2632.83335 656.600014,2635.39999 653.8,2637.4 C650.999986,2639.40001 647.766685,2640.7 644.1,2641.3 C640.433315,2641.9 635.466698,2642.2 629.2,2642.2 Z" id="5"></path>
        </g>
    </g>
</svg>