
<svg width="111px" height="153px" viewBox="0 0 111 153" version="1.1" xmlns="http://www.w3.org/2000/svg" xmlns:xlink="http://www.w3.org/1999/xlink">
    <!-- Generator: Sketch 51.2 (57519) - http://www.bohemiancoding.com/sketch -->
    <desc>Created with Sketch.</desc>
    <defs></defs>
    <g id="Page-1" stroke="none" stroke-width="1" fill="none" fill-rule="evenodd" fill-opacity="0.468551857">
        <g id="Desktop-HD-Copy-2" transform="translate(-965.000000, -2617.000000)" fill="#00C7BD">
            <path d="M1031.4,2671 C1045.5334,2671 1056.4333,2675.73329 1064.1,2685.2 C1071.76671,2694.66671 1075.6,2705.46661 1075.6,2717.6 C1075.6,2733.60008 1070.30005,2746.33329 1059.7,2755.8 C1049.09995,2765.26671 1036.9334,2770 1023.2,2770 C1013.73329,2770 1005.43337,2768.36668 998.3,2765.1 C991.166631,2761.83332 985.466688,2757.60003 981.2,2752.4 C970.399946,2739.4666 965,2723.33343 965,2704 C965,2701.06665 965.133332,2698.06668 965.4,2695 C967.266676,2670.59988 974.633269,2651.6334 987.5,2638.1 C1000.36673,2624.5666 1017.1999,2617.8 1038,2617.8 C1052.53341,2617.8 1064.39995,2621.59996 1073.6,2629.2 L1064.4,2645.6 C1056.79996,2639.59997 1048.00005,2636.6 1038,2636.6 C1028.53329,2636.6 1020.70003,2639.7333 1014.5,2646 C1008.29997,2652.2667 1003.80001,2659.86662 1001,2668.8 C997.533316,2680.40006 995.8,2692.59994 995.8,2705.4 C995.8,2714.06671 996.933322,2722.06663 999.2,2729.4 C1003.73336,2743.93341 1011.53328,2751.2 1022.6,2751.2 C1027.93336,2751.2 1032.83331,2748.3667 1037.3,2742.7 C1041.76669,2737.0333 1044.13333,2729.53338 1044.4,2720.2 L1044.4,2717.2 C1044.4,2698.13324 1035.46676,2688.6 1017.6,2688.6 C1015.33332,2688.6 1012.10002,2689.13333 1007.9,2690.2 C1003.69998,2691.26667 1001.26667,2692.2 1000.6,2693 L1002,2677.8 C1010.13337,2673.26664 1019.93328,2671 1031.4,2671 Z" id="6"></path>
        </g>
    </g>
</svg>