<svg width="328px" height="113px" viewBox="0 0 328 113" version="1.1" xmlns="http://www.w3.org/2000/svg" xmlns:xlink="http://www.w3.org/1999/xlink">
    <desc>Created with Sketch.</desc>
    <defs></defs>
    <g id="Page-1" stroke="none" stroke-width="1" fill="none" fill-rule="evenodd">
        <g id="about-me" transform="translate(-2.000000, 0.000000)">
            <ellipse id="Oval" fill="#FFC919" cx="166" cy="-23" rx="166" ry="136"></ellipse>
            <path d="M69.02,56.48 C67.3799918,56.48 65.8950066,56.2150027 64.565,55.685 C63.2349933,55.1549974 62.1400043,54.3800051 61.28,53.36 L65.09,48.86 C65.6500028,49.5600035 66.1999973,50.0799983 66.74,50.42 C67.2800027,50.7600017 67.8399971,50.93 68.42,50.93 C69.1600037,50.93 69.724998,50.7100022 70.115,50.27 C70.505002,49.8299978 70.7,49.1800043 70.7,48.32 L70.7,40.34 L63.56,40.34 L63.56,35 L77.69,35 L77.69,47.9 C77.69,50.7600143 76.9550074,52.9049928 75.485,54.335 C74.0149926,55.7650072 71.8600142,56.48 69.02,56.48 Z M88.07,39.29 C90.9500144,39.29 93.1499924,39.9349936 94.67,41.225 C96.1900076,42.5150065 96.95,44.4999866 96.95,47.18 L96.95,56 L90.65,56 L90.65,53.84 C89.8699961,55.4800082 88.3200116,56.3 86,56.3 C84.6999935,56.3 83.5950045,56.0750022 82.685,55.625 C81.7749955,55.1749978 81.0850023,54.5650038 80.615,53.795 C80.1449976,53.0249961 79.91,52.1600048 79.91,51.2 C79.91,49.5799919 80.5299938,48.3500042 81.77,47.51 C83.0100062,46.6699958 84.8899874,46.25 87.41,46.25 L90.14,46.25 C89.9199989,44.9699936 88.8900092,44.33 87.05,44.33 C86.3099963,44.33 85.5600038,44.4449989 84.8,44.675 C84.0399962,44.9050012 83.3900027,45.219998 82.85,45.62 L80.69,41.15 C81.6300047,40.5699971 82.7649933,40.1150016 84.095,39.785 C85.4250067,39.4549983 86.7499934,39.29 88.07,39.29 Z M88.04,52.22 C88.5200024,52.22 88.9499981,52.0900013 89.33,51.83 C89.7100019,51.5699987 89.9899991,51.1800026 90.17,50.66 L90.17,49.52 L88.49,49.52 C87.1099931,49.52 86.42,49.9799954 86.42,50.9 C86.42,51.2800019 86.5649985,51.5949988 86.855,51.845 C87.1450014,52.0950012 87.5399975,52.22 88.04,52.22 Z M111.29,39.29 C113.31001,39.29 114.934994,39.8999939 116.165,41.12 C117.395006,42.3400061 118.01,44.1799877 118.01,46.64 L118.01,56 L111.23,56 L111.23,47.81 C111.23,45.9299906 110.560007,44.99 109.22,44.99 C108.459996,44.99 107.845002,45.2549974 107.375,45.785 C106.904998,46.3150026 106.67,47.1499943 106.67,48.29 L106.67,56 L99.89,56 L99.89,39.59 L106.34,39.59 L106.34,41.21 C106.980003,40.5699968 107.719996,40.0900016 108.56,39.77 C109.400004,39.4499984 110.309995,39.29 111.29,39.29 Z M120.95,39.59 L127.73,39.59 L127.73,56 L120.95,56 L120.95,39.59 Z M124.34,38.27 C123.119994,38.27 122.135004,37.9450032 121.385,37.295 C120.634996,36.6449968 120.26,35.820005 120.26,34.82 C120.26,33.819995 120.634996,32.9950033 121.385,32.345 C122.135004,31.6949968 123.119994,31.37 124.34,31.37 C125.580006,31.37 126.569996,31.6799969 127.31,32.3 C128.050004,32.9200031 128.42,33.7199951 128.42,34.7 C128.42,35.7400052 128.050004,36.5949966 127.31,37.265 C126.569996,37.9350034 125.580006,38.27 124.34,38.27 Z M137.18,41.36 C138.380006,39.9799931 140.149988,39.29 142.49,39.29 L142.49,45.29 C141.949997,45.2099996 141.450002,45.17 140.99,45.17 C138.669988,45.17 137.51,46.3499882 137.51,48.71 L137.51,56 L130.73,56 L130.73,39.59 L137.18,39.59 L137.18,41.36 Z M151.61,39.29 C154.490014,39.29 156.689992,39.9349936 158.21,41.225 C159.730008,42.5150065 160.49,44.4999866 160.49,47.18 L160.49,56 L154.19,56 L154.19,53.84 C153.409996,55.4800082 151.860012,56.3 149.54,56.3 C148.239994,56.3 147.135005,56.0750022 146.225,55.625 C145.314995,55.1749978 144.625002,54.5650038 144.155,53.795 C143.684998,53.0249961 143.45,52.1600048 143.45,51.2 C143.45,49.5799919 144.069994,48.3500042 145.31,47.51 C146.550006,46.6699958 148.429987,46.25 150.95,46.25 L153.68,46.25 C153.459999,44.9699936 152.430009,44.33 150.59,44.33 C149.849996,44.33 149.100004,44.4449989 148.34,44.675 C147.579996,44.9050012 146.930003,45.219998 146.39,45.62 L144.23,41.15 C145.170005,40.5699971 146.304993,40.1150016 147.635,39.785 C148.965007,39.4549983 150.289993,39.29 151.61,39.29 Z M151.58,52.22 C152.060002,52.22 152.489998,52.0900013 152.87,51.83 C153.250002,51.5699987 153.529999,51.1800026 153.71,50.66 L153.71,49.52 L152.03,49.52 C150.649993,49.52 149.96,49.9799954 149.96,50.9 C149.96,51.2800019 150.104999,51.5949988 150.395,51.845 C150.685001,52.0950012 151.079998,52.22 151.58,52.22 Z M186.53,44.93 L192.68,44.93 L192.68,53.81 C191.439994,54.6700043 190.000008,55.3299977 188.36,55.79 C186.719992,56.2500023 185.110008,56.48 183.53,56.48 C181.289989,56.48 179.280009,56.0150047 177.5,55.085 C175.719991,54.1549954 174.325005,52.8550083 173.315,51.185 C172.304995,49.5149916 171.8,47.6200106 171.8,45.5 C171.8,43.3799894 172.304995,41.4850084 173.315,39.815 C174.325005,38.1449917 175.734991,36.8450046 177.545,35.915 C179.355009,34.9849953 181.399989,34.52 183.68,34.52 C185.74001,34.52 187.584992,34.8649966 189.215,35.555 C190.845008,36.2450034 192.199995,37.2499934 193.28,38.57 L188.75,42.56 C187.429993,41.0199923 185.860009,40.25 184.04,40.25 C182.479992,40.25 181.240005,40.7199953 180.32,41.66 C179.399995,42.6000047 178.94,43.8799919 178.94,45.5 C178.94,47.0800079 179.394995,48.3499952 180.305,49.31 C181.215005,50.2700048 182.429992,50.75 183.95,50.75 C184.850005,50.75 185.709996,50.5800017 186.53,50.24 L186.53,44.93 Z M195.5,39.59 L202.28,39.59 L202.28,56 L195.5,56 L195.5,39.59 Z M198.89,38.27 C197.669994,38.27 196.685004,37.9450032 195.935,37.295 C195.184996,36.6449968 194.81,35.820005 194.81,34.82 C194.81,33.819995 195.184996,32.9950033 195.935,32.345 C196.685004,31.6949968 197.669994,31.37 198.89,31.37 C200.130006,31.37 201.119996,31.6799969 201.86,32.3 C202.600004,32.9200031 202.97,33.7199951 202.97,34.7 C202.97,35.7400052 202.600004,36.5949966 201.86,37.265 C201.119996,37.9350034 200.130006,38.27 198.89,38.27 Z M205.28,33.74 L212.06,33.74 L212.06,56 L205.28,56 L205.28,33.74 Z M222.41,39.29 C225.290014,39.29 227.489992,39.9349936 229.01,41.225 C230.530008,42.5150065 231.29,44.4999866 231.29,47.18 L231.29,56 L224.99,56 L224.99,53.84 C224.209996,55.4800082 222.660012,56.3 220.34,56.3 C219.039994,56.3 217.935005,56.0750022 217.025,55.625 C216.114995,55.1749978 215.425002,54.5650038 214.955,53.795 C214.484998,53.0249961 214.25,52.1600048 214.25,51.2 C214.25,49.5799919 214.869994,48.3500042 216.11,47.51 C217.350006,46.6699958 219.229987,46.25 221.75,46.25 L224.48,46.25 C224.259999,44.9699936 223.230009,44.33 221.39,44.33 C220.649996,44.33 219.900004,44.4449989 219.14,44.675 C218.379996,44.9050012 217.730003,45.219998 217.19,45.62 L215.03,41.15 C215.970005,40.5699971 217.104993,40.1150016 218.435,39.785 C219.765007,39.4549983 221.089993,39.29 222.41,39.29 Z M222.38,52.22 C222.860002,52.22 223.289998,52.0900013 223.67,51.83 C224.050002,51.5699987 224.329999,51.1800026 224.51,50.66 L224.51,49.52 L222.83,49.52 C221.449993,49.52 220.76,49.9799954 220.76,50.9 C220.76,51.2800019 220.904999,51.5949988 221.195,51.845 C221.485001,52.0950012 221.879998,52.22 222.38,52.22 Z M240.68,41.36 C241.880006,39.9799931 243.649988,39.29 245.99,39.29 L245.99,45.29 C245.449997,45.2099996 244.950002,45.17 244.49,45.17 C242.169988,45.17 241.01,46.3499882 241.01,48.71 L241.01,56 L234.23,56 L234.23,39.59 L240.68,39.59 L240.68,41.36 Z M260.45,55.43 C259.429995,56.0100029 258.040009,56.3 256.28,56.3 C253.979988,56.3 252.210006,55.7450056 250.97,54.635 C249.729994,53.5249945 249.11,51.8600111 249.11,49.64 L249.11,45.44 L246.86,45.44 L246.86,40.49 L249.11,40.49 L249.11,35.9 L255.89,35.9 L255.89,40.49 L259.25,40.49 L259.25,45.44 L255.89,45.44 L255.89,49.58 C255.89,50.0800025 256.019999,50.4699986 256.28,50.75 C256.540001,51.0300014 256.879998,51.17 257.3,51.17 C257.880003,51.17 258.389998,51.0200015 258.83,50.72 L260.45,55.43 Z M279.17,47.78 C279.17,47.8800005 279.14,48.4099952 279.08,49.37 L267.68,49.37 C267.920001,49.9900031 268.319997,50.4649984 268.88,50.795 C269.440003,51.1250017 270.139996,51.29 270.98,51.29 C271.700004,51.29 272.304998,51.2000009 272.795,51.02 C273.285002,50.8399991 273.819997,50.5300022 274.4,50.09 L277.94,53.66 C276.339992,55.4200088 273.950016,56.3 270.77,56.3 C268.78999,56.3 267.050007,55.9350036 265.55,55.205 C264.049992,54.4749963 262.890004,53.4600065 262.07,52.16 C261.249996,50.8599935 260.84,49.4000081 260.84,47.78 C260.84,46.1399918 261.244996,44.6750064 262.055,43.385 C262.865004,42.0949935 263.974993,41.0900036 265.385,40.37 C266.795007,39.6499964 268.379991,39.29 270.14,39.29 C271.800008,39.29 273.314993,39.6199967 274.685,40.28 C276.055007,40.9400033 277.144996,41.9099936 277.955,43.19 C278.765004,44.4700064 279.17,45.9999911 279.17,47.78 Z M270.2,43.91 C269.499996,43.91 268.920002,44.0999981 268.46,44.48 C267.999998,44.8600019 267.700001,45.3999965 267.56,46.1 L272.84,46.1 C272.699999,45.4199966 272.400002,44.885002 271.94,44.495 C271.479998,44.104998 270.900003,43.91 270.2,43.91 Z" id="Janira-Gilarte" fill="#26293E"></path>
        </g>
    </g>
</svg>