
<svg width="112px" height="85px" viewBox="0 0 112 85" version="1.1" xmlns="http://www.w3.org/2000/svg" xmlns:xlink="http://www.w3.org/1999/xlink">
    <!-- Generator: Sketch 51.2 (57519) - http://www.bohemiancoding.com/sketch -->
    <desc>Created with Sketch.</desc>
    <defs></defs>
    <g id="Page-1" stroke="none" stroke-width="1" fill="none" fill-rule="evenodd" fill-opacity="0.468551857">
        <g id="Desktop-HD-Copy-2" transform="translate(-180.000000, -1705.000000)" fill="#00C7BD">
            <path d="M219.3,1705.6 C219.700002,1705.4 220.499994,1705.3 221.7,1705.3 C222.900006,1705.3 225.299982,1705.89999 228.9,1707.1 C232.500018,1708.30001 234.799995,1709.3 235.8,1710.1 C228.199962,1718.70004 220.000044,1728.99994 211.2,1741 C216.800028,1742.40001 221.499981,1745.29998 225.3,1749.7 C229.100019,1754.10002 231,1759.44997 231,1765.75 C231,1772.05003 228.650024,1777.59998 223.95,1782.4 C219.249977,1787.20002 213.800031,1789.6 207.6,1789.6 L206.7,1789.6 C199.099962,1789.6 192.750025,1787.40002 187.65,1783 C182.549974,1778.59998 180.05,1772.00004 180.15,1763.2 C180.25,1754.39996 184.749955,1744.30006 193.65,1732.9 C202.550045,1721.49994 211.099959,1712.40003 219.3,1705.6 Z M275.7,1705.6 C276.100002,1705.4 276.849994,1705.3 277.95,1705.3 C279.050005,1705.3 281.499981,1705.94999 285.3,1707.25 C289.100019,1708.55001 291.199998,1709.5 291.6,1710.1 C281.59995,1721.70006 273.60003,1731.99995 267.6,1741 C273.200028,1742.40001 277.849982,1745.24998 281.55,1749.55 C285.250019,1753.85002 287.1,1759.24997 287.1,1765.75 C287.1,1772.25003 284.800023,1777.84998 280.2,1782.55 C275.599977,1787.25002 270.100032,1789.6 263.7,1789.6 L262.8,1789.6 C255.399963,1789.6 249.150025,1787.40002 244.05,1783 C238.949974,1778.59998 236.4,1772.75004 236.4,1765.45 C236.4,1758.14996 239.199972,1750.00005 244.8,1741 C253.400043,1727.39993 263.69994,1715.60005 275.7,1705.6 Z" id="“"></path>
        </g>
    </g>
</svg>